<?xml version="1.0" encoding="utf-8"?>
<!-- Svg Vector Icons : http://www.onlinewebfonts.com/icon -->
<!DOCTYPE svg PUBLIC "-//W3C//DTD SVG 1.1//EN" "http://www.w3.org/Graphics/SVG/1.1/DTD/svg11.dtd">
<svg version="1.1" xmlns="http://www.w3.org/2000/svg" xmlns:xlink="http://www.w3.org/1999/xlink" x="0px" y="0px" viewBox="0 0 1000 1000" enable-background="new 0 0 1000 1000" xml:space="preserve">
<metadata> Svg Vector Icons : http://www.onlinewebfonts.com/icon </metadata>
<g><g><g><path d="M501.4,220.8c16.3,0,29.5,13.2,29.5,29.5c0,16.3-13.2,29.5-29.5,29.5c-16.3,0-29.5-13.2-29.5-29.5C471.9,234,485.2,220.8,501.4,220.8z"/><rect x="457.4" y="792.7" width="67.4" height="25.9"/><rect x="457.4" y="832.1" width="67.4" height="25.9"/><rect x="457.4" y="867.3" width="67.4" height="25.9"/><path d="M524.8,927v-20.2h-67.4V927c-22.4,12.1-37.7,35.7-37.7,63c106.7,0,70.2,0,142.9,0C562.5,962.7,547.2,939,524.8,927z"/><rect x="612" y="792.7" width="67.4" height="25.9"/><rect x="612" y="832.1" width="67.4" height="25.9"/><rect x="612" y="867.3" width="67.4" height="25.9"/><path d="M679.4,927v-20.2H612V927c-22.4,12.1-37.7,35.7-37.7,63c106.8,0,70.2,0,142.8,0C717.1,962.7,701.8,939,679.4,927z"/><path d="M633.3,220.8c16.3,0,29.5,13.2,29.5,29.5c0,16.3-13.2,29.5-29.5,29.5c-16.3,0-29.5-13.2-29.5-29.5C603.8,234,617,220.8,633.3,220.8z"/><path d="M866.6,682.6l0.1,0L740.3,432.5l-0.1,0v0h-98.3v-62.2h68.5V168.9h-83v-41.5h-54.8V40.7h11.2V10h-16.4h-16.4v30.7h11.2v86.8h-54.9v41.5h-82.9v201.3h68.5v62.2h-99.2l-75.4,92.9L184.6,404.3v-49.2h-27v68.9H88.7V451h54.9l181.5,164.4l68.6-84.1V734h62.2v46.6h67.3V734h87.3v46.6H678V734h62.2V570.1l66.7,132l-21.3,50.5l24.9,10.5l26.8-63.5l63.5,26.8l10.5-24.9L866.6,682.6z M683.5,250.3c0,27.7-22.5,50.1-50.2,50.1c-27.7,0-50.1-22.4-50.1-50.1c0-27.7,22.4-50.1,50.1-50.1C661,200.1,683.5,222.6,683.5,250.3z M451.3,250.3c0-27.7,22.4-50.1,50.1-50.1c27.7,0,50.1,22.4,50.1,50.1c0,27.7-22.4,50.1-50.1,50.1C473.8,300.4,451.3,278,451.3,250.3z M596.1,666.1H446.2v-39.8h149.9V666.1z M596.1,603.1H446.2v-39.9h149.9V603.1z M596.1,538.8H446.2V499h149.9V538.8z M567.4,340.4h-56.2v-19.9h56.2h56.2v19.9H567.4z M690.7,666.1h-72.2v-39.8h72.2V666.1z M690.7,603.1h-72.2v-39.9h72.2V603.1z M690.7,538.8h-72.2V499h72.2V538.8z"/></g></g><g></g><g></g><g></g><g></g><g></g><g></g><g></g><g></g><g></g><g></g><g></g><g></g><g></g><g></g><g></g></g>
</svg>